<?xml version="1.0" encoding="UTF-8"?>
<svg id="Layer_2" data-name="Layer 2" xmlns="http://www.w3.org/2000/svg" xmlns:xlink="http://www.w3.org/1999/xlink" viewBox="0 0 552.03 227.67">
  <defs>
    <style>
      .cls-1 {
        fill: url(#linear-gradient);
      }

      .cls-1, .cls-2 {
        stroke-width: 0px;
      }

      .cls-2 {
        fill: #1d1d1b;
      }
    </style>
    <linearGradient id="linear-gradient" x1="436.04" y1="-103.3" x2="103.4" y2="229.35" gradientUnits="userSpaceOnUse">
      <stop offset="0" stop-color="#c3d234"/>
      <stop offset=".03" stop-color="#bcd036"/>
      <stop offset=".37" stop-color="#80c04e"/>
      <stop offset=".65" stop-color="#54b560"/>
      <stop offset=".87" stop-color="#39ae6a"/>
      <stop offset="1" stop-color="#2fac6f"/>
    </linearGradient>
  </defs>
  <g id="Layer_1-2" data-name="Layer 1">
    <g>
      <path class="cls-2" d="M76.01,226.53v-9.32h14.93v-47.74h-14.93v-9.32h42.22v9.32h-14.93v47.74h14.93v9.32h-42.22Z"/>
      <path class="cls-2" d="M125.09,226.53v-49.07h12.17v8.65h.48c2.19-5.33,6.37-9.79,14.36-9.79,9.6,0,16.26,6.66,16.26,18.54v31.66h-12.17v-29.95c0-7.04-3.14-10.65-9.22-10.65-4.94,0-9.7,2.57-9.7,7.8v32.81h-12.17Z"/>
      <path class="cls-2" d="M201.52,226.53c-9.32,0-13.69-5.52-13.69-13.31v-26.15h-14.26v-9.6h9.7c3.9,0,5.42-1.33,5.42-5.42v-11.89h11.32v17.31h19.97v9.6h-19.97v29.86h19.97v9.6h-18.45Z"/>
      <path class="cls-2" d="M224.72,202.09c0-15.88,9.13-25.77,23.49-25.77s23.11,9.79,23.11,24.63v3.99h-34.42v1.24c0,7.04,4.66,11.89,12.65,11.89,5.99,0,10.36-2.66,13.31-6.75l6.94,6.94c-3.52,5.14-10.27,9.41-20.63,9.41-15.69,0-24.44-9.89-24.44-25.58ZM236.89,197.05v.67h22.25v-.86c0-7.04-4.18-11.6-10.84-11.6s-11.41,4.75-11.41,11.79Z"/>
      <path class="cls-2" d="M276.86,216.92h12.17v-29.86h-12.17v-9.6h24.34v13.41h.76c1.81-6.94,5.99-13.41,15.78-13.41h5.32v11.41h-10.08c-7.7,0-11.79,5.23-11.79,11.51v16.55h17.02v9.6h-41.36v-9.6Z"/>
      <path class="cls-2" d="M328.99,226.53v-49.07h12.17v8.65h.48c2.19-5.33,6.37-9.79,14.36-9.79,9.6,0,16.26,6.66,16.26,18.54v31.66h-12.17v-29.95c0-7.04-3.14-10.65-9.22-10.65-4.94,0-9.7,2.57-9.7,7.8v32.81h-12.17Z"/>
      <path class="cls-2" d="M379.45,202.09c0-15.88,9.13-25.77,23.49-25.77s23.11,9.79,23.11,24.63v3.99h-34.42v1.24c0,7.04,4.66,11.89,12.65,11.89,5.99,0,10.36-2.66,13.31-6.75l6.94,6.94c-3.52,5.14-10.27,9.41-20.63,9.41-15.69,0-24.44-9.89-24.44-25.58ZM391.62,197.05v.67h22.25v-.86c0-7.04-4.18-11.6-10.84-11.6s-11.41,4.75-11.41,11.79Z"/>
      <path class="cls-2" d="M457.57,226.53c-9.32,0-13.69-5.52-13.69-13.31v-26.15h-14.26v-9.6h9.7c3.9,0,5.42-1.33,5.42-5.42v-11.89h11.32v17.31h19.97v9.6h-19.97v29.86h19.97v9.6h-18.45Z"/>
    </g>
    <path class="cls-1" d="M124.83,100.43v25.52H0v-31.17l27.07-27.07h14.51l34.79-34.79h22.75v-4.81c0-1.24-1-2.25-2.24-2.26H0V.17h112.47l12.34,13.75v7.02l-37.65,37.65h-.14l-34.79,34.79h-26.53v5.25c0,.48.19.93.52,1.27s.79.52,1.27.52h97.35ZM264.58.01v25.7h-97.09c-1.1,0-2,.87-2.03,1.97v12.63l9.57,9.57h63.85v25.69h-74.49l-24.64-24.64V16.21c0-8.94,7.25-16.18,16.18-16.18h108.64ZM175.04,100.29h89.53v25.65h-100.21l-24.6-24.6v-17.45l9.44-9.43,25.83,25.83ZM401.83,5.05c3.23,3.23,5.04,7.62,5.04,12.19v59.32c0,9.51-7.71,17.22-17.22,17.22h-18.47l22.25,22.26v9.92h-26.39l-13.53-13.53v-18.67l-34.79-34.79h-36.66V0h107.59c4.57,0,8.95,1.81,12.18,5.05ZM295.41,75.2l12.34,12.33v38.48h-25.69v-50.81h13.36ZM381.16,29.81c0-1.09-.43-2.14-1.2-2.91-.77-.77-1.82-1.21-2.91-1.21h-69.3v7.58h21.63l34.79,34.79h12.89c1.09,0,2.14-.43,2.91-1.2.77-.77,1.21-1.82,1.2-2.91V29.81ZM552.03,21.64v82.72c0,11.63-9.22,21.17-20.84,21.58h-83.13c-11.62-.41-20.83-9.95-20.84-21.58V21.64C427.22,9.7,436.9.02,448.84.02h81.57c11.94,0,21.62,9.68,21.62,21.62ZM459.39,75.66l34.79-34.79v-15.14h-37.58c-2.04,0-3.69,1.65-3.69,3.69v67.18c0,2.04,1.65,3.69,3.69,3.69h2.79v-24.62ZM526.33,29.4c0-.98-.39-1.92-1.08-2.61-.69-.69-1.63-1.08-2.61-1.08h-2.77v25.79l-34.79,34.79v13.98h37.57c.98,0,1.92-.39,2.61-1.08.69-.69,1.08-1.63,1.08-2.61V29.4Z"/>
  </g>
</svg>