<svg width="58" height="99" viewBox="0 0 58 99" fill="none" xmlns="http://www.w3.org/2000/svg">
<path d="M44.0451 46.0245C41.9601 47.6905 39.322 48.6945 36.451 48.6945C33.666 48.6945 31.004 47.7325 28.86 46.0195L19.123 67.2505H36.451H53.7791L44.0451 46.0245Z" fill="#293748"/>
<path d="M43.7658 27.8789C42.1338 31.1539 39.8968 34.3009 37.0738 37.1239C34.2908 39.9069 31.1528 42.1669 27.8398 43.8269C29.9148 46.2639 33.0008 47.8149 36.4528 47.8149C42.7008 47.8149 47.7658 42.7499 47.7658 36.5019C47.7648 33.0439 46.2098 29.9539 43.7658 27.8789Z" fill="#293748"/>
<path d="M40.6224 0.574219C49.3914 9.34422 47.5244 25.4292 36.4524 36.5012C25.3804 47.5732 9.29439 49.4412 0.525391 40.6712L40.6224 0.574219Z" fill="#293748"/>
<path d="M6.79797 6.19804L6.16016 6.83594L20.302 20.9758L20.9398 20.3379L6.79797 6.19804Z" fill="#293748"/>
<path d="M15.4165 25.8384L14.7785 26.4754L6.14453 6.83037L6.78152 6.19336L15.4165 25.8384Z" fill="#293748"/>
<path d="M25.7895 15.4654L26.4275 14.8274L6.78152 6.19336L6.14453 6.83037L25.7895 15.4654Z" fill="#293748"/>
<path d="M8.37482 4.59864C9.43082 5.65464 9.43082 7.36764 8.37482 8.42364C7.31882 9.47964 5.60681 9.47964 4.54981 8.42364C3.49381 7.36764 3.49381 5.65564 4.54981 4.59864C5.60581 3.54264 7.31882 3.54264 8.37482 4.59864Z" fill="#293748"/>
<path d="M57.5843 68.1348H15.3223V71.1667H57.5843V68.1348Z" fill="#293748"/>
<path d="M19.125 75.0859L28.862 96.3169C31.006 94.6039 33.668 93.6419 36.453 93.6419C39.324 93.6419 41.961 94.6449 44.047 96.3119L53.782 75.0869H36.454L19.125 75.0859Z" fill="url(#paint0_linear_400_276)"/>
<path d="M36.4529 94.5215C33.0009 94.5215 29.9158 96.0725 27.8398 98.5095C27.8958 98.5375 27.9509 98.5695 28.0069 98.5975H45.1449C43.0699 96.1075 39.9479 94.5215 36.4529 94.5215Z" fill="url(#paint1_linear_400_276)"/>
<path d="M4.63281 98.5963H25.9328C18.5428 95.3683 10.6798 95.2813 4.63281 98.5963Z" fill="url(#paint2_linear_400_276)"/>
<path d="M57.5843 71.168H15.3223V74.2H57.5843V71.168Z" fill="url(#paint3_linear_400_276)"/>
<defs>
</defs>
</svg>
