<?xml version="1.0" encoding="UTF-8"?>
<svg id="Layer_2" data-name="Layer 2" xmlns="http://www.w3.org/2000/svg" xmlns:xlink="http://www.w3.org/1999/xlink" viewBox="0 0 552.03 126.01">
  <defs>
    <style>
      .cls-1 {
        fill: url(#linear-gradient);
        stroke-width: 0px;
      }
    </style>
    <linearGradient id="linear-gradient" x1="436.04" y1="-103.3" x2="103.4" y2="229.35" gradientUnits="userSpaceOnUse">
      <stop offset="0" stop-color="#c3d234"/>
      <stop offset=".03" stop-color="#bcd036"/>
      <stop offset=".37" stop-color="#80c04e"/>
      <stop offset=".65" stop-color="#54b560"/>
      <stop offset=".87" stop-color="#39ae6a"/>
      <stop offset="1" stop-color="#2fac6f"/>
    </linearGradient>
  </defs>
  <g id="Layer_1-2" data-name="Layer 1">
    <path class="cls-1" d="M124.83,100.43v25.52H0v-31.17l27.07-27.07h14.51l34.79-34.79h22.75v-4.81c0-1.24-1-2.25-2.24-2.26H0V.17h112.47l12.34,13.75v7.02l-37.65,37.65h-.14l-34.79,34.79h-26.53v5.25c0,.48.19.93.52,1.27s.79.52,1.27.52h97.35ZM264.58.01v25.7h-97.09c-1.1,0-2,.87-2.03,1.97v12.63l9.57,9.57h63.85v25.69h-74.49l-24.64-24.64V16.21c0-8.94,7.25-16.18,16.18-16.18h108.64ZM175.04,100.29h89.53v25.65h-100.21l-24.6-24.6v-17.45l9.44-9.43,25.83,25.83ZM401.83,5.05c3.23,3.23,5.04,7.62,5.04,12.19v59.32c0,9.51-7.71,17.22-17.22,17.22h-18.47l22.25,22.26v9.92h-26.39l-13.53-13.53v-18.67l-34.79-34.79h-36.66V0h107.59c4.57,0,8.95,1.81,12.18,5.05ZM295.41,75.2l12.34,12.33v38.48h-25.69v-50.81h13.36ZM381.16,29.81c0-1.09-.43-2.14-1.2-2.91-.77-.77-1.82-1.21-2.91-1.21h-69.3v7.58h21.63l34.79,34.79h12.89c1.09,0,2.14-.43,2.91-1.2.77-.77,1.21-1.82,1.2-2.91V29.81ZM552.03,21.64v82.72c0,11.63-9.22,21.17-20.84,21.58h-83.13c-11.62-.41-20.83-9.95-20.84-21.58V21.64C427.22,9.7,436.9.02,448.84.02h81.57c11.94,0,21.62,9.68,21.62,21.62ZM459.39,75.66l34.79-34.79v-15.14h-37.58c-2.04,0-3.69,1.65-3.69,3.69v67.18c0,2.04,1.65,3.69,3.69,3.69h2.79v-24.62ZM526.33,29.4c0-.98-.39-1.92-1.08-2.61-.69-.69-1.63-1.08-2.61-1.08h-2.77v25.79l-34.79,34.79v13.98h37.57c.98,0,1.92-.39,2.61-1.08.69-.69,1.08-1.63,1.08-2.61V29.4Z"/>
  </g>
</svg>